PathFileType	4	(X/Y/Z)	 s05c0001.trc
DataRate	CameraRate	NumFrames	NumMarkers	Units	OrigDataRate	OrigDataStartFrame	OrigNumFrames
200	200	7	49	mm	200	1001	2000
Frame#	Time	racr			lacr			c7			jug			rlel			rdr			llel			ldr			s2			lic			ric			lasi			rasi			rpsi			lpsi			rgt			lgt			rth1			rth2			rth3			rth4			rlfc			rmfc			rsh1			rsh2			rsh3			rsh4			rlmal			rmmal			rcal			rtoe			rmt5			rmt1			lth1			lth2			lth4			lth3			llfc			lmfc			lsh1			lsh2			lsh3			lsh4			llmal			lmmal			lcal			ltoe			lmt1			lmt5			
		X1	Y1	Z1	X2	Y2	Z2	X3	Y3	Z3	X4	Y4	Z4	X5	Y5	Z5	X6	Y6	Z6	X7	Y7	Z7	X8	Y8	Z8	X9	Y9	Z9	X10	Y10	Z10	X11	Y11	Z11	X12	Y12	Z12	X13	Y13	Z13	X14	Y14	Z14	X15	Y15	Z15	X16	Y16	Z16	X17	Y17	Z17	X18	Y18	Z18	X19	Y19	Z19	X20	Y20	Z20	X21	Y21	Z21	X22	Y22	Z22	X23	Y23	Z23	X24	Y24	Z24	X25	Y25	Z25	X26	Y26	Z26	X27	Y27	Z27	X28	Y28	Z28	X29	Y29	Z29	X30	Y30	Z30	X31	Y31	Z31	X32	Y32	Z32	X33	Y33	Z33	X34	Y34	Z34	X35	Y35	Z35	X36	Y36	Z36	X37	Y37	Z37	X38	Y38	Z38	X39	Y39	Z39	X40	Y40	Z40	X41	Y41	Z41	X42	Y42	Z42	X43	Y43	Z43	X44	Y44	Z44	X45	Y45	Z45	X46	Y46	Z46	X47	Y47	Z47	X48	Y48	Z48	X49	Y49	Z49	
1001	5.0050	270.215910	1527.804928	348.780973	258.287540	1534.975478	2.408409	204.443813	1571.165726	171.628484	347.453440	1483.784656	170.650697	237.666839	1281.445910	533.615198	306.979453	1136.868353	742.607444	204.557852	1292.223466	-193.565125	237.153581	1156.475879	-430.748540	179.236259	1035.749127	180.488133	320.622618	1095.229416	30.800095	323.472408	1076.206210	316.480019	373.021786	1028.914284	62.806298	380.126037	1019.985039	284.329431	202.936322	1068.257840	223.681875	200.376628	1072.242452	134.461574	274.086396	923.151161	334.364555	246.512469	953.826736	10.259859	277.156765	824.879032	350.548876	288.942019	735.905712	349.635468	254.355179	655.892339	337.866605	325.439202	732.161896	341.025609	256.698746	507.499217	312.206406	249.292171	506.724037	211.241102	203.247571	410.229675	339.888046	218.276077	322.700510	330.775741	190.288631	242.269056	323.578391	250.665363	323.081815	308.055052	187.219296	109.665706	305.722476	212.975338	124.608532	227.810245	136.846148	62.444639	249.226177	424.728702	80.964491	309.426939	317.348465	44.850070	355.989136	350.615774	47.175478	242.532400	263.435226	821.966773	-11.075231	285.465492	739.132496	-4.954658	321.493057	738.811924	7.238073	259.914309	652.414073	6.076645	247.343279	516.887856	38.795289	240.266107	509.217480	138.773681	196.112267	400.194714	12.768387	211.024147	314.120203	22.849830	179.395040	231.208676	27.147723	243.282718	313.866290	43.365143	183.276718	108.894538	41.864118	211.912150	127.599426	115.191298	136.950128	57.424424	94.073649	425.072920	79.335838	39.354995	351.278603	48.168563	106.039466	312.856056	38.215403	-5.446734	
1002	5.0100	270.203861	1527.800338	348.780404	258.259508	1534.978901	2.409260	204.484520	1571.151880	171.588483	347.430838	1483.775074	170.647217	237.657079	1281.516147	533.683766	306.998998	1136.870874	742.629802	204.529677	1292.216978	-193.556021	237.129592	1156.462332	-430.737533	179.234951	1035.745154	180.489933	320.610477	1095.214473	30.814039	323.468413	1076.211907	316.481590	373.028765	1028.915278	62.815456	380.121205	1020.005431	284.334014	202.939158	1068.254036	223.675215	200.360068	1072.238277	134.466301	274.084677	923.153177	334.380619	246.511096	953.827960	10.257003	277.145039	824.869064	350.573854	288.945841	735.917020	349.652375	254.334853	655.902462	337.875519	325.409436	732.166126	341.022686	256.695596	507.505931	312.213387	249.275283	506.724168	211.237883	203.236935	410.234536	339.892527	218.247764	322.687412	330.775697	190.296094	242.284102	323.584667	250.660190	323.075656	308.047478	187.209628	109.679735	305.718934	212.976920	124.604951	227.811254	136.853728	62.442955	249.220037	424.730298	80.960877	309.424145	317.334271	44.863366	356.006889	350.618480	47.179778	242.548545	263.446788	821.965674	-11.069230	285.475156	739.130033	-4.930550	321.488938	738.840989	7.195156	259.923081	652.410991	6.088406	247.350395	516.885586	38.807403	240.283236	509.210668	138.778213	196.117808	400.181671	12.775962	211.041143	314.230244	22.693350	179.389805	231.200647	27.157878	243.207778	313.759489	43.614015	183.279785	108.878718	41.867484	211.902002	127.602063	115.174073	136.947606	57.418605	94.078397	425.064157	79.343373	39.349402	351.282671	48.162555	106.046380	312.854023	38.219573	-5.449088	
1003	5.0150	270.182269	1527.805690	348.794688	258.263891	1534.979936	2.394517	204.428926	1571.151782	171.605230	347.407356	1483.766246	170.645392	237.701006	1281.444888	533.610227	307.007116	1136.874508	742.623408	204.497984	1292.204267	-193.560180	237.080599	1156.444272	-430.724831	179.224208	1035.742245	180.506275	320.609804	1095.225341	30.814590	323.445616	1076.210638	316.495729	373.023019	1028.918279	62.833408	380.088843	1020.001295	284.349527	202.919520	1068.248216	223.684377	200.366599	1072.227927	134.477056	274.061456	923.151994	334.394576	246.515606	953.820661	10.261688	277.151994	824.875462	350.570712	288.936750	735.917833	349.671548	254.342782	655.915628	337.893548	325.416663	732.167331	341.035521	256.679776	507.509115	312.218262	249.271162	506.707698	211.249575	203.235960	410.221329	339.889784	218.248874	322.677985	330.762114	190.288781	242.273080	323.601574	250.671349	323.074398	308.050042	187.213052	109.653608	305.719969	212.961888	124.607858	227.820038	136.841072	62.453962	249.223466	424.728832	80.975026	309.429821	317.324538	44.849500	355.999396	350.615329	47.176395	242.530908	263.441550	821.979346	-11.064156	285.485402	739.121504	-4.926194	321.497880	738.818217	7.278114	259.926870	652.404362	6.109093	247.359410	516.892761	38.812497	240.271624	509.205660	138.778940	196.124837	400.191939	12.781080	211.037640	314.118845	22.861208	179.393165	231.213365	27.144837	243.282490	313.854144	43.359382	183.291521	108.870492	41.863603	211.906129	127.601119	115.174065	136.957551	57.430643	94.082374	425.072834	79.344887	39.357001	351.267454	48.159665	106.041329	312.848310	38.226324	-5.463528	
1004	5.0200	270.159711	1527.805937	348.803936	258.238501	1534.976717	2.382754	204.409568	1571.137596	171.610094	347.399408	1483.780035	170.639905	237.670797	1281.514596	533.696003	307.026839	1136.868001	742.634522	204.476677	1292.210871	-193.545613	237.037216	1156.421582	-430.719921	179.226423	1035.743437	180.505835	320.612654	1095.215752	30.814908	323.431761	1076.211284	316.505360	373.035475	1028.919931	62.835238	380.097883	1019.999596	284.344307	202.909261	1068.244908	223.691411	200.352105	1072.227155	134.479570	274.068009	923.152138	334.404795	246.510451	953.815637	10.269359	277.144875	824.881154	350.597054	288.935352	735.915707	349.674650	254.339755	655.905272	337.886751	325.415096	732.167216	341.027451	256.617917	507.432486	312.193550	249.259827	506.723304	211.242300	203.235267	410.229006	339.891238	218.259455	322.672901	330.774148	190.290424	242.275063	323.598507	250.663282	323.068829	308.050548	187.211361	109.655049	305.729582	212.973700	124.610411	227.812007	136.839887	62.446025	249.217663	424.733282	80.965744	309.423074	317.315357	44.847159	355.996519	350.600820	47.163893	242.530861	263.444923	821.978815	-11.055187	285.481648	739.138386	-4.951603	321.504978	738.817659	7.273017	259.946674	652.417004	6.107217	247.344786	516.888823	38.812422	240.273752	509.209902	138.790007	196.132088	400.186471	12.774089	211.059114	314.233058	22.694705	179.385463	231.214396	27.141188	243.209198	313.748380	43.619504	183.275121	108.876823	41.848799	211.926156	127.565326	115.183677	136.952595	57.419764	94.065959	425.078978	79.328811	39.340754	351.263914	48.162996	106.039346	312.857734	38.224864	-5.463172	
1005	5.0250	270.169247	1527.811988	348.792959	258.222250	1534.958263	2.405181	204.362651	1571.165696	171.639546	347.370383	1483.767393	170.630766	237.685340	1281.506992	533.714983	307.054579	1136.885884	742.629504	204.443964	1292.204593	-193.548144	237.003351	1156.407426	-430.719330	179.227030	1035.738410	180.500849	320.609996	1095.206571	30.842553	323.440267	1076.207643	316.515427	373.020835	1028.921802	62.846297	380.079578	1019.998138	284.366192	202.903658	1068.243391	223.684490	200.353810	1072.220138	134.483648	274.054855	923.151818	334.411577	246.500842	953.820030	10.275984	277.133083	824.876717	350.617609	288.933835	735.922101	349.676162	254.338500	655.908649	337.901818	325.410365	732.181350	341.051942	256.614271	507.426695	312.198746	249.244162	506.722204	211.246400	203.236584	410.216431	339.902766	218.257383	322.667879	330.764734	190.266916	242.262446	323.603946	250.656379	323.074570	308.064031	187.214970	109.665162	305.723288	212.969121	124.603378	227.813012	136.838587	62.442373	249.222994	424.728840	80.965496	309.425279	317.341238	44.844363	355.999587	350.617103	47.159483	242.558256	263.438822	821.965687	-11.045742	285.485536	739.121261	-4.925792	321.512485	738.805788	7.285255	259.936765	652.410649	6.113548	247.351559	516.875733	38.809427	240.278665	509.201455	138.791620	196.128642	400.180504	12.787681	211.036901	314.118626	22.856317	179.401024	231.204373	27.142805	243.278105	313.857393	43.365848	183.274367	108.885408	41.864794	211.918142	127.594130	115.192649	136.969116	57.427117	94.076477	425.073571	79.340384	39.362345	351.269574	48.157835	106.041015	312.846685	38.227316	-5.448577	
1006	5.0300	270.133345	1527.824315	348.803060	258.205042	1534.973353	2.395818	204.373327	1571.151679	171.621976	347.357955	1483.783423	170.650615	237.699406	1281.533136	533.695067	307.059110	1136.881106	742.625890	204.407314	1292.203254	-193.536070	236.964649	1156.392048	-430.711992	179.208267	1035.734969	180.518116	320.608695	1095.223309	30.848196	323.431820	1076.211784	316.515867	373.013371	1028.924932	62.870738	380.071326	1020.003373	284.365961	202.894679	1068.227759	223.700100	200.334164	1072.228119	134.493807	274.033963	923.149105	334.420255	246.498123	953.814743	10.284662	277.129447	824.877258	350.630000	288.931308	735.919774	349.676353	254.343267	655.903272	337.905375	325.418870	732.163195	341.041775	256.610181	507.440523	312.207702	249.241181	506.720812	211.256402	203.234106	410.212760	339.903349	218.261329	322.681670	330.769872	190.294563	242.280076	323.603467	250.652674	323.073485	308.062278	187.209637	109.661470	305.718049	212.949248	124.604444	227.814547	136.855615	62.440368	249.220396	424.732123	80.960746	309.431018	317.336555	44.836926	356.007992	350.613832	47.166124	242.528707	263.458680	821.973646	-11.036419	285.492289	739.130273	-4.909089	321.506961	738.811949	7.295087	259.951917	652.421783	6.107971	247.351255	516.888942	38.821124	240.261012	509.214960	138.803341	196.136671	400.187142	12.784374	211.045083	314.115015	22.880944	179.393671	231.210930	27.144119	243.283733	313.861085	43.373349	183.272775	108.883604	41.858241	211.915974	127.603079	115.184451	136.961162	57.428867	94.070318	425.077481	79.334414	39.364327	351.270616	48.154413	106.045398	312.854148	38.218980	-5.449335	
1007	5.0350	270.132598	1527.822331	348.803507	258.179708	1534.970174	2.400947	204.339997	1571.141901	171.631464	347.350866	1483.787675	170.658166	237.701388	1281.518533	533.700306	307.085613	1136.882288	742.614548	204.382833	1292.184434	-193.535139	236.925644	1156.384318	-430.705202	179.205532	1035.741462	180.513120	320.593770	1095.209404	30.859216	323.403128	1076.225282	316.531527	373.010109	1028.936800	62.877030	380.069450	1020.003384	284.365222	202.883752	1068.232237	223.712725	200.333770	1072.221621	134.496509	274.034393	923.150562	334.425098	246.499367	953.817735	10.281981	277.123079	824.866076	350.626947	288.915411	735.922990	349.691759	254.335930	655.895616	337.914959	325.405224	732.169578	341.063082	256.600008	507.439881	312.218480	249.248511	506.716120	211.247784	203.223117	410.228956	339.908784	218.250701	322.686667	330.786626	190.285891	242.279816	323.605153	250.657973	323.077095	308.068637	187.211456	109.661554	305.723734	212.970109	124.606584	227.818463	136.855664	62.440376	249.220408	424.728716	80.976276	309.434938	317.342004	44.856265	356.009211	350.619765	47.155805	242.561001	263.460612	821.969095	-11.029088	285.499909	739.134971	-4.899578	321.508999	738.811435	7.291392	259.947457	652.409577	6.126793	247.361067	516.875096	38.838532	240.264560	509.197278	138.813784	196.139309	400.184172	12.807493	211.045642	314.107952	22.888519	179.394911	231.198977	27.161301	243.285311	313.860621	43.398900	183.276561	108.882028	41.859632	211.896283	127.599829	115.180608	136.956395	57.428863	94.085706	425.076639	79.336959	39.365343	351.261025	48.161617	106.047896	312.851095	38.227817	-5.446929	
